<?xml version="1.0" encoding="UTF-8"?><svg version="1.1" viewBox="0 0 235 276" xmlns="http://www.w3.org/2000/svg"><path fill="#005A5F" d="M810.714 54.414c-2.393 0-4.407.84-5.419 2.484 -1.048 1.697-.885 3.883.226 6.096l26.868 46.511c.045.09.045.145 0 .226l-42.221 74.509c-1.102 2.194-1.048 4.398 0 6.096 1.011 1.634 2.799 2.709 5.193 2.709h39.738c5.942 0 8.805-4.01 10.837-7.677 0 0 41.291-73.027 42.899-75.863 -.162-.262-27.32-47.64-27.32-47.64 -1.978-3.522-4.967-7.451-11.063-7.451h-39.738Z" transform="translate(-789.361 0)"/><path fill="#D4D600" d="M2385.61 2343.35c-5.93 0-8.5 3.73-10.64 7.56 0 0-85.6 151.82-88.42 156.81 .14.27 56.46 103.58 56.46 103.58 1.97 3.53 5.02 7.57 11.1 7.57h39.69c2.4 0 4.27-.9 5.28-2.53 1.06-1.7 1.03-3.94-.08-6.15l-56.02-102.35c-.06-.08-.06-.18 0-.26l87.98-155.57c1.1-2.19 1.13-4.43.08-6.13 -1.01-1.63-2.89-2.53-5.28-2.53h-40.15Z" transform="translate(-2197.32-2343.35)"/></svg>